<svg xmlns="http://www.w3.org/2000/svg" width="40.992" height="30.592" viewBox="0 0 10.846 8.094"><g fill="#8fa4b1" transform="translate(-4.495 -5.244)"><path fill-rule="evenodd" d="M4.495 11.296h2.908v2.042H4.495zm3.969 0h2.908v2.042H8.464zm3.968 0h2.909v2.042h-2.909zM7.614 5.244h4.608v2.041H7.614z"/><g transform="rotate(45.017 -226.81 242.718)"><rect width=".652" height="2.909" x="-226.886" y="-89.589" ry="0"/><path d="m-226.553-85.826-.515-.883-.514-.883 1.021-.004 1.022-.004-.507.887z"/></g><g transform="rotate(134.983 -90.88 98.007)scale(1 -1)"><rect width=".652" height="2.909" x="-226.886" y="-89.589" ry="0"/><path d="m-226.553-85.826-.515-.883-.514-.883 1.021-.004 1.022-.004-.507.887z"/></g><rect width=".652" height="2.249" x="-10.223" y="7.883" ry="0" transform="rotate(.46)scale(-1 1)skewY(.186)"/><path d="m9.802 11.032.52-.879.52-.88-1.021-.01-1.022-.01.502.89z"/></g></svg>