<svg xmlns="http://www.w3.org/2000/svg" width="37.098" height="35.401" viewBox="0 0 9.816 9.367"><path fill="#fff" fill-rule="evenodd" d="M.315 5.547c0 .377 2.104.682 4.699.682s4.698-.305 4.698-.682v1.845c0 .377-2.104.682-4.698.682S.315 7.769.315 7.392z"/><path fill="none" d="M.315 5.547c0-.377 2.104-.682 4.699-.682s4.698.305 4.698.682-2.104.682-4.698.682S.315 5.924.315 5.547"/><path fill-rule="evenodd" stroke="#eee" stroke-linecap="square" stroke-miterlimit="10" stroke-width=".208" d="M.315 3.63h0c0 .376 2.104.681 4.699.681s4.698-.305 4.698-.682v1.845c0 .377-2.104.682-4.698.682S.315 5.851.315 5.474z"/><path fill="#fff" fill-rule="evenodd" d="M.315 3.237c0-.376 2.104-.682 4.699-.682s4.698.306 4.698.682-2.104.682-4.698.682S.315 3.614.315 3.237"/><path fill="none" d="M.315.682C.315.305 2.42 0 5.014 0s4.698.305 4.698.682-2.104.682-4.698.682S.315 1.06.315.682"/><g fill="none"><path d="M.208 1.413c0 .376 2.103.682 4.698.682s4.698-.306 4.698-.682v1.845c0 .376-2.103.682-4.698.682S.208 3.634.208 3.258z"/><g stroke="#8fa4b1" stroke-linejoin="round" stroke-miterlimit="10" stroke-width=".415"><path stroke-dasharray="1.66000002,.415" d="M9.604 6.632c0 .377-2.104.682-4.698.682S.208 7.009.208 6.632s2.103-.682 4.698-.682c2.594 0 4.698.305 4.698.682v1.845c0 .377-2.104.682-4.698.682S.208 8.854.208 8.477V6.632"/><path fill="#8fa4b1" d="M9.604 3.615c0 .377-2.104.682-4.698.682S.208 3.992.208 3.615s2.103-.682 4.698-.682c2.594 0 4.698.305 4.698.682V5.46c0 .377-2.104.682-4.698.682S.208 5.837.208 5.46V3.615"/><path stroke-dasharray="1.66059433,.41514858" d="M9.604 1.413c0 .376-2.103.682-4.698.682S.208 1.789.208 1.413 2.31.73 4.906.73s4.698.305 4.698.682v1.845c0 .376-2.103.682-4.698.682S.208 3.634.208 3.258V1.413"/></g></g></svg>