<svg xmlns="http://www.w3.org/2000/svg" width="1023" height="459" viewBox="0 0 1023 459"><g fill="none" fill-rule="evenodd"><path fill="#f37430" d="M220 167c0-42-32-77.5-74-77.5S68.5 125 68.5 167s35.5 74 77.5 74 74-32 74-74m49 0v98c0 14.5-10.5 25-25 25-10 0-24-10.5-24-25-21.5 18-45.5 25-74 25-70.5 0-126.5-52.5-126.5-123S75.5 40.5 146 40.5s123 56 123 126.5"/><path stroke="#f37430" stroke-width="7" d="M220 167c0-42-32-77.5-74-77.5S68.5 125 68.5 167s35.5 74 77.5 74 74-32 74-74Zm49 0v98c0 14.5-10.5 25-25 25-10 0-24-10.5-24-25-21.5 18-45.5 25-74 25-70.5 0-126.5-52.5-126.5-123S75.5 40.5 146 40.5s123 56 123 126.5Z"/><path fill="#f37430" d="M449.492 64.5c0 13.5-11 25-25 25-42 0-76 34-76 76V266c0 13.5-11 25-24.5 25-14 0-25-11.5-25-25V165.5c0-69.5 56.5-125.5 125.5-125.5 14 0 25 11 25 24.5"/><path stroke="#f37430" stroke-width="7" d="M449.492 64.5c0 13.5-11 25-25 25-42 0-76 34-76 76V266c0 13.5-11 25-24.5 25-14 0-25-11.5-25-25V165.5c0-69.5 56.5-125.5 125.5-125.5 14 0 25 11 25 24.5Z"/><path fill="#f37430" d="M649.479 165c0-42-34.5-76-76-76-42 0-76 34-76 76 0 41.5 34 76 76 76 41.5 0 76-34.5 76-76m49.5 125.5c0 69-56.5 125.5-125.5 125.5-48.5 0-91.5-27-113-70.5-6-12.5-1-27 11.5-33 12-6 27-1 33 11 13 26.5 39 43 68.5 43 41.5 0 75-33.5 76-74.5v-27.5c-21.5 16-47.5 26-76 26-69.5 0-125.5-56.5-125.5-125.5 0-69.5 56-125.5 125.5-125.5 69 0 125.5 56 125.5 125.5z"/><path stroke="#f37430" stroke-width="7" d="M649.479 165c0-42-34.5-76-76-76-42 0-76 34-76 76 0 41.5 34 76 76 76 41.5 0 76-34.5 76-76Zm49.5 125.5c0 69-56.5 125.5-125.5 125.5-48.5 0-91.5-27-113-70.5-6-12.5-1-27 11.5-33 12-6 27-1 33 11 13 26.5 39 43 68.5 43 41.5 0 75-33.5 76-74.5v-27.5c-21.5 16-47.5 26-76 26-69.5 0-125.5-56.5-125.5-125.5 0-69.5 56-125.5 125.5-125.5 69 0 125.5 56 125.5 125.5z"/><path fill="#f37430" d="M777.965 165c0 41.5 34 76 76 76s76-34.5 76-76c0-42-34-76-76-76s-76 34-76 76m-49.5 0c0-69.5 56.5-125.5 125.5-125.5 69.5 0 125.5 56 125.5 125.5 0 69-56 125.5-125.5 125.5-69 0-125.5-56.5-125.5-125.5"/><path stroke="#f37430" stroke-width="7" d="M777.965 165c0 41.5 34 76 76 76s76-34.5 76-76c0-42-34-76-76-76s-76 34-76 76Zm-49.5 0c0-69.5 56.5-125.5 125.5-125.5 69.5 0 125.5 56 125.5 125.5 0 69-56 125.5-125.5 125.5-69 0-125.5-56.5-125.5-125.5Z"/></g></svg>